<svg xmlns="http://www.w3.org/2000/svg" viewBox="0 0 60.056 57.502"><defs><style>.a{fill:#fff;}</style></defs><path class="a" d="M708.789,11238.474a29.428,29.428,0,0,1-10.913-3.04,59.158,59.158,0,0,1-19.7-14.754,51.435,51.435,0,0,1-9.61-15.324,19.1,19.1,0,0,1-1.6-8.532,6.8,6.8,0,0,1,2.273-4.677c1.526-1.388,2.962-2.837,4.462-4.247a4.358,4.358,0,0,1,6.36-.015c1.213,1.137,2.4,2.3,3.6,3.444,1.165,1.128,2.327,2.226,3.489,3.354,2.048,1.975,2.048,4.271.011,6.233-1.461,1.41-2.911,2.823-4.4,4.2a.852.852,0,0,0-.223,1.126,24.993,24.993,0,0,0,3.985,6.112,45.491,45.491,0,0,0,11.124,9.693c.925.548,1.949.956,2.911,1.459a.9.9,0,0,0,1.224-.218c1.464-1.433,2.95-2.843,4.437-4.262a4.34,4.34,0,0,1,6.363,0q3.579,3.415,7.147,6.837c1.988,1.912,1.974,4.259-.025,6.2-1.348,1.307-2.787,2.55-4.062,3.912a7.962,7.962,0,0,1-6.162,2.521Q709.142,11238.493,708.789,11238.474Zm-3.038-37.211a16.174,16.174,0,0,0-9.1-4.344l.652-4.437a20.867,20.867,0,0,1,11.747,5.6,19.485,19.485,0,0,1,5.759,10.653l-4.612.756A15,15,0,0,0,705.751,11201.263Zm8.36-7.79a29.986,29.986,0,0,0-16.847-8.041l.652-4.44a34.6,34.6,0,0,1,19.5,9.309,32.359,32.359,0,0,1,9.573,17.676l-4.612.753A27.814,27.814,0,0,0,714.111,11193.473Z" transform="translate(-666.928 -11180.991)"/></svg>